<?xml version="1.0" encoding="UTF-8"?>
<svg version="1.1" xmlns="http://www.w3.org/2000/svg" width="64" height="64">
<path d="M0 0 C1.4375 2.1875 1.4375 2.1875 1.4375 5.1875 C2.613125 4.836875 3.78875 4.48625 5 4.125 C9.84445622 2.92460377 14.11535504 2.84467584 18.55859375 5.4140625 C22.49928045 9.13354642 22.21324938 15.0308088 22.4375 20.1875 C22.50046394 24.37990802 22.43372479 28.55913045 22.3125 32.75 C22.29098877 33.80920654 22.26947754 34.86841309 22.24731445 35.9597168 C22.20437256 36.96429932 22.16143066 37.96888184 22.1171875 39.00390625 C22.06667236 40.35657593 22.06667236 40.35657593 22.01513672 41.73657227 C21.23184908 45.06008223 20.18100736 46.1562388 17.4375 48.1875 C14.82630103 49.04845064 12.41535231 49.70310864 9.7421875 50.2578125 C8.99470245 50.42497772 8.24721741 50.59214294 7.4770813 50.76437378 C5.09169758 51.29428998 2.70243314 51.80354169 0.3125 52.3125 C-1.27112721 52.66142932 -2.85446448 53.01167729 -4.4375 53.36328125 C-31.57881195 59.35908331 -31.57881195 59.35908331 -35.33544922 57.14038086 C-40.1666111 53.4060475 -40.1666111 53.4060475 -41.22290039 50.15478516 C-41.48074425 47.82924688 -41.53311659 45.58945036 -41.5 43.25 C-41.51321289 42.41968262 -41.52642578 41.58936523 -41.54003906 40.73388672 C-41.56277574 39.03740575 -41.57081526 37.34066247 -41.56396484 35.64404297 C-41.56259878 33.35314978 -41.62178584 31.07423084 -41.70703125 28.78515625 C-42.00205774 17.67249176 -42.00205774 17.67249176 -38.5625 13.1875 C-33.58075162 10.45242246 -29.19148199 9.68127035 -23.5625 9.1875 C-23.459375 8.259375 -23.35625 7.33125 -23.25 6.375 C-22.5625 3.1875 -22.5625 3.1875 -21.5 1.4375 C-15.80270772 -2.23817244 -5.74951815 -4.06673235 0 0 Z M-15.5625 7.1875 C-13.01547384 8.46101308 -12.1342055 7.98941925 -9.4375 7.25 C-8.71304688 7.05535156 -7.98859375 6.86070313 -7.2421875 6.66015625 C-6.68789063 6.50417969 -6.13359375 6.34820312 -5.5625 6.1875 C-9.50045909 4.96330837 -11.72362237 5.70429728 -15.5625 7.1875 Z " fill="#BE8256" transform="translate(41.5625,3.8125)"/>
<path d="M0 0 C1.4375 2.1875 1.4375 2.1875 1.4375 5.1875 C2.613125 4.836875 3.78875 4.48625 5 4.125 C9.84445622 2.92460377 14.11535504 2.84467584 18.55859375 5.4140625 C22.49928045 9.13354642 22.21324938 15.0308088 22.4375 20.1875 C22.50046394 24.37990802 22.43372479 28.55913045 22.3125 32.75 C22.29098877 33.80920654 22.26947754 34.86841309 22.24731445 35.9597168 C22.20437256 36.96429932 22.16143066 37.96888184 22.1171875 39.00390625 C22.06667236 40.35657593 22.06667236 40.35657593 22.01513672 41.73657227 C21.23184908 45.06008223 20.18100736 46.1562388 17.4375 48.1875 C14.82630103 49.04845064 12.41535231 49.70310864 9.7421875 50.2578125 C8.99470245 50.42497772 8.24721741 50.59214294 7.4770813 50.76437378 C5.09169758 51.29428998 2.70243314 51.80354169 0.3125 52.3125 C-1.27112721 52.66142932 -2.85446448 53.01167729 -4.4375 53.36328125 C-31.57881195 59.35908331 -31.57881195 59.35908331 -35.33544922 57.14038086 C-40.1666111 53.4060475 -40.1666111 53.4060475 -41.22290039 50.15478516 C-41.48074425 47.82924688 -41.53311659 45.58945036 -41.5 43.25 C-41.51321289 42.41968262 -41.52642578 41.58936523 -41.54003906 40.73388672 C-41.56277574 39.03740575 -41.57081526 37.34066247 -41.56396484 35.64404297 C-41.56259878 33.35314978 -41.62178584 31.07423084 -41.70703125 28.78515625 C-42.00205774 17.67249176 -42.00205774 17.67249176 -38.5625 13.1875 C-33.58075162 10.45242246 -29.19148199 9.68127035 -23.5625 9.1875 C-23.459375 8.259375 -23.35625 7.33125 -23.25 6.375 C-22.5625 3.1875 -22.5625 3.1875 -21.5 1.4375 C-15.80270772 -2.23817244 -5.74951815 -4.06673235 0 0 Z M0.4375 7.1875 C0.1075 7.8475 -0.2225 8.5075 -0.5625 9.1875 C-1.13097656 9.10371094 -1.69945312 9.01992187 -2.28515625 8.93359375 C-7.32885545 8.26839803 -11.56544069 8.2306163 -16.5625 9.1875 C-16.8925 10.1775 -17.2225 11.1675 -17.5625 12.1875 C-18.861875 11.98125 -20.16125 11.775 -21.5 11.5625 C-27.74650613 10.86186503 -33.30031992 11.67937995 -38.5625 15.1875 C-38.5625 15.8475 -38.5625 16.5075 -38.5625 17.1875 C-37.634375 17.435 -36.70625 17.6825 -35.75 17.9375 C-30.75499716 21.46338436 -30.60665467 26.40333386 -29.5625 32.1875 C-29.2325 33.8375 -28.9025 35.4875 -28.5625 37.1875 C-21.3025 37.1875 -14.0425 37.1875 -6.5625 37.1875 C-6.5625 38.1775 -6.5625 39.1675 -6.5625 40.1875 C-14.8125 40.1875 -23.0625 40.1875 -31.5625 40.1875 C-31.5625 45.4675 -31.5625 50.7475 -31.5625 56.1875 C-23.63761912 55.48268413 -15.96838984 53.94680575 -8.1875 52.3125 C-6.93710937 52.05597656 -5.68671875 51.79945312 -4.3984375 51.53515625 C8.42971745 49.79287695 8.42971745 49.79287695 19.4375 44.1875 C19.58247985 41.60685871 19.62427545 39.13806116 19.5625 36.5625 C19.55347656 35.85609375 19.54445312 35.1496875 19.53515625 34.421875 C19.51157603 32.67693902 19.47570461 30.93217705 19.4375 29.1875 C16.80471505 30.42292984 14.18212167 31.67470801 11.5625 32.9375 C10.81613281 33.28554688 10.06976563 33.63359375 9.30078125 33.9921875 C8.58535156 34.34023438 7.86992188 34.68828125 7.1328125 35.046875 C6.47297363 35.36108398 5.81313477 35.67529297 5.13330078 35.99902344 C3.05805715 37.45342683 2.39150442 38.87244927 1.4375 41.1875 C0.7775 41.1875 0.1175 41.1875 -0.5625 41.1875 C0.0975 40.8575 0.7575 40.5275 1.4375 40.1875 C1.4375 37.8775 1.4375 35.5675 1.4375 33.1875 C2.23800781 32.94966797 2.23800781 32.94966797 3.0546875 32.70703125 C9.18618303 30.78696085 14.76209514 28.18515643 20.4375 25.1875 C20.40441357 22.60074275 20.33721107 20.02252562 20.25 17.4375 C20.24419922 16.70789062 20.23839844 15.97828125 20.23242188 15.2265625 C20.07472498 11.37174956 19.7742641 9.54619032 17.09765625 6.6953125 C11.62075061 3.59092839 6.1050122 5.14719561 0.4375 7.1875 Z M-15.5625 7.1875 C-13.01547384 8.46101308 -12.1342055 7.98941925 -9.4375 7.25 C-8.71304688 7.05535156 -7.98859375 6.86070313 -7.2421875 6.66015625 C-6.68789063 6.50417969 -6.13359375 6.34820312 -5.5625 6.1875 C-9.50045909 4.96330837 -11.72362237 5.70429728 -15.5625 7.1875 Z " fill="#4C443D" transform="translate(41.5625,3.8125)"/>
<path d="M0 0 C0.13501894 2.43934225 0.23403897 4.87124104 0.3125 7.3125 C0.35439453 8.00279297 0.39628906 8.69308594 0.43945312 9.40429688 C0.48828125 11.42578125 0.48828125 11.42578125 0 15 C-3.94462388 18.12978098 -8.43841337 19.00842432 -13.265625 20.0078125 C-14.05845886 20.17876434 -14.85129272 20.34971619 -15.66815186 20.52584839 C-17.34148028 20.88470068 -19.01576548 21.23911682 -20.69091797 21.58935547 C-23.22987654 22.12078793 -25.76540821 22.66658842 -28.30078125 23.21484375 C-29.93471319 23.56335738 -31.5688226 23.91104025 -33.203125 24.2578125 C-33.95031799 24.41823029 -34.69751099 24.57864807 -35.46734619 24.743927 C-40.6300139 25.81652031 -45.75221053 26.48041046 -51 27 C-51 21.72 -51 16.44 -51 11 C-46.93732211 10.94603085 -42.87536201 10.90633888 -38.8125 10.875 C-37.66201172 10.85824219 -36.51152344 10.84148438 -35.32617188 10.82421875 C-34.21435547 10.81777344 -33.10253906 10.81132813 -31.95703125 10.8046875 C-30.93585205 10.79421387 -29.91467285 10.78374023 -28.86254883 10.77294922 C-25.86996421 11.01031414 -23.74746283 11.84887972 -21 13 C-18.75 12.5 -18.75 12.5 -17 11 C-16.66742188 10.08347656 -16.66742188 10.08347656 -16.328125 9.1484375 C-14.33340107 5.9216782 -11.26684203 4.79683289 -7.9375 3.25 C-7.28716797 2.93417969 -6.63683594 2.61835937 -5.96679688 2.29296875 C-1.19722335 0 -1.19722335 0 0 0 Z " fill="#A66B4C" transform="translate(61,33)"/>
<path d="M0 0 C1.99866097 -0.07317326 4.00115252 -0.06788775 6 0 C8.78136493 2.6124317 9.52258491 5.24921033 10.1875 8.9375 C10.34605469 9.77152344 10.50460937 10.60554688 10.66796875 11.46484375 C11 14 11 14 11 19 C17.93 19 24.86 19 32 19 C32.33 18.34 32.66 17.68 33 17 C33.495 20.465 33.495 20.465 34 24 C33.505 23.01 33.505 23.01 33 22 C32.35675781 22.0721875 31.71351562 22.144375 31.05078125 22.21875 C23.66878766 22.97695762 16.42012431 23.07978628 9 23 C8.67 27.95 8.34 32.9 8 38 C8.66 38.33 9.32 38.66 10 39 C6.39408913 38.25297041 3.81522377 37.05779618 1.22167969 34.32714844 C-1.660695 28.83658178 -0.58369516 21.67453451 -0.375 15.625 C-0.34487655 14.11072983 -0.3175049 12.59640226 -0.29296875 11.08203125 C-0.22712763 7.38682102 -0.1237393 3.69377679 0 0 Z " fill="#604A3D" transform="translate(2,22)"/>
<path d="M0 0 C4.875 0.875 4.875 0.875 6 2 C6.08851529 4.59359322 6.11525945 7.16039691 6.09765625 9.75390625 C6.0962413 10.52935287 6.09482635 11.3047995 6.09336853 12.10374451 C6.08775345 14.59003494 6.07519846 17.0762366 6.0625 19.5625 C6.05748694 21.24413933 6.0529237 22.92578006 6.04882812 24.60742188 C6.03777913 28.73831566 6.02050445 32.86914276 6 37 C0.19860478 33.02199601 0.19860478 33.02199601 -0.68115234 28.49487305 C-0.64973145 27.18043213 -0.61831055 25.86599121 -0.5859375 24.51171875 C-0.57744781 23.80852005 -0.56895813 23.10532135 -0.56021118 22.3808136 C-0.52678324 20.14810955 -0.45154502 17.91910021 -0.375 15.6875 C-0.34488573 14.1686722 -0.31751245 12.64978741 -0.29296875 11.13085938 C-0.22703363 7.41938466 -0.1235945 3.71005327 0 0 Z " fill="#704E3D" transform="translate(2,22)"/>
<path d="M0 0 C0 1.32 0 2.64 0 4 C-0.66 4.66 -1.32 5.32 -2 6 C-2.16681109 9.08347826 -2.16681109 9.08347826 -2 12 C-4.31 12.33 -6.62 12.66 -9 13 C-9.66 11.68 -10.32 10.36 -11 9 C-13.97 9 -16.94 9 -20 9 C-20 8.67 -20 8.34 -20 8 C-16.535 7.505 -16.535 7.505 -13 7 C-13 5.68 -13 4.36 -13 3 C-11.39743892 2.49487756 -9.79288208 1.99608373 -8.1875 1.5 C-7.29417969 1.2215625 -6.40085937 0.943125 -5.48046875 0.65625 C-3 0 -3 0 0 0 Z " fill="#72603A" transform="translate(45,32)"/>
<path d="M0 0 C2 2 2 2 2.125 5.125 C2.08375 6.07375 2.0425 7.0225 2 8 C1.01 8 0.02 8 -1 8 C-1.33 6.35 -1.66 4.7 -2 3 C-5.96 3.99 -9.92 4.98 -14 6 C-14 7.98 -14 9.96 -14 12 C-14.99 12.495 -14.99 12.495 -16 13 C-16.99 12.34 -17.98 11.68 -19 11 C-19.55121058 7.37775903 -19.49425706 5.67731523 -17.3125 2.6875 C-12.4554247 -0.85685225 -5.83253927 -0.60906162 0 0 Z " fill="#7E5641" transform="translate(39,4)"/>
<path d="M0 0 C-1 3 -1 3 -4.0546875 4.6484375 C-5.96306093 5.52860973 -7.88244394 6.37824827 -9.80859375 7.21875 C-14.06905447 9.19332678 -15.79902374 10.92030881 -18 15 C-21.1875 15.8125 -21.1875 15.8125 -24 16 C-20.25 13 -20.25 13 -18 13 C-18 11.02 -18 9.04 -18 7 C-19.32 6.67 -20.64 6.34 -22 6 C-20.02 5.67 -18.04 5.34 -16 5 C-15.67 4.01 -15.34 3.02 -15 2 C-15 2.99 -15 3.98 -15 5 C-14.16855469 4.55527344 -13.33710937 4.11054687 -12.48046875 3.65234375 C-11.39378906 3.08644531 -10.30710937 2.52054688 -9.1875 1.9375 C-8.10855469 1.36902344 -7.02960937 0.80054687 -5.91796875 0.21484375 C-3 -1 -3 -1 0 0 Z " fill="#714F3D" transform="translate(61,31)"/>
<path d="M0 0 C3.875 1.75 3.875 1.75 5 4 C5.0165904 6.55641318 4.97300981 9.08004522 4.87890625 11.6328125 C4.85529526 12.38464813 4.83168427 13.13648376 4.80735779 13.91110229 C4.7306938 16.31592566 4.64668156 18.72042918 4.5625 21.125 C4.50928203 22.75389052 4.45654161 24.38279672 4.40429688 26.01171875 C4.27507502 30.0080156 4.13926173 34.00404092 4 38 C4.66 38.33 5.32 38.66 6 39 C4.68 38.67 3.36 38.34 2 38 C1.97494385 36.91992676 1.9498877 35.83985352 1.92407227 34.72705078 C1.83004428 30.72757688 1.72981246 26.72827853 1.62768555 22.72900391 C1.5843192 20.99662374 1.54264537 19.26420037 1.50268555 17.53173828 C1.44502406 15.04446373 1.38131802 12.55740707 1.31640625 10.0703125 C1.29969376 9.29317902 1.28298126 8.51604553 1.26576233 7.71536255 C1.23526571 3.72725784 1.23526571 3.72725784 0 0 Z " fill="#59483E" transform="translate(6,22)"/>
<path d="M0 0 C0 1.98 0 3.96 0 6 C-2.31 6.33 -4.62 6.66 -7 7 C-7 5.02 -7 3.04 -7 1 C-4.50935112 0.31292445 -2.62113708 0 0 0 Z " fill="#D1A80B" transform="translate(43,38)"/>
<path d="M0 0 C0 0.66 0 1.32 0 2 C-1.55575978 2.84584998 -3.1199612 3.67618399 -4.6875 4.5 C-5.99267578 5.19609375 -5.99267578 5.19609375 -7.32421875 5.90625 C-10.11788829 7.04818792 -12.01629113 7.21504208 -15 7 C-15.33 7.99 -15.66 8.98 -16 10 C-16.33 9.34 -16.66 8.68 -17 8 C-19.02463255 7.34786708 -19.02463255 7.34786708 -21 7 C-19.02 6.67 -17.04 6.34 -15 6 C-14.67 5.01 -14.34 4.02 -14 3 C-14 3.99 -14 4.98 -14 6 C-13.15695313 5.566875 -12.31390625 5.13375 -11.4453125 4.6875 C-10.34960938 4.130625 -9.25390625 3.57375 -8.125 3 C-7.03445312 2.443125 -5.94390625 1.88625 -4.8203125 1.3125 C-2 0 -2 0 0 0 Z " fill="#5B4C3E" transform="translate(60,30)"/>
<path d="M0 0 C0.515625 0.495 1.03125 0.99 1.5625 1.5 C1.2325 2.16 0.9025 2.82 0.5625 3.5 C-0.4275 2.84 -1.4175 2.18 -2.4375 1.5 C-5.64863539 1.47637027 -5.64863539 1.47637027 -9.125 1.875 C-10.30449219 1.98585938 -11.48398437 2.09671875 -12.69921875 2.2109375 C-13.60285156 2.30632813 -14.50648437 2.40171875 -15.4375 2.5 C-15.4375 1.51 -15.4375 0.52 -15.4375 -0.5 C-4.33333333 -2.66666667 -4.33333333 -2.66666667 0 0 Z " fill="#CE9871" transform="translate(58.4375,10.5)"/>
<path d="M0 0 C0.77137384 2.50696497 0.99167031 4.40815486 0.9375 7.0625 C0.74114932 10.19333909 0.74114932 10.19333909 3 13 C5.42521494 13.58189266 5.42521494 13.58189266 8.125 13.6875 C9.49011719 13.78611328 9.49011719 13.78611328 10.8828125 13.88671875 C11.93082031 13.94279297 11.93082031 13.94279297 13 14 C13 14.33 13 14.66 13 15 C10.85423363 15.02685938 8.70837355 15.04633088 6.5625 15.0625 C5.36753906 15.07410156 4.17257812 15.08570313 2.94140625 15.09765625 C0 15 0 15 -1 14 C-1.09908783 12.21059028 -1.12970379 10.41714492 -1.125 8.625 C-1.12757812 7.64789063 -1.13015625 6.67078125 -1.1328125 5.6640625 C-1 3 -1 3 0 0 Z " fill="#7B5541" transform="translate(11,30)"/>
<path d="M0 0 C0 0.66 0 1.32 0 2 C-7.425 3.485 -7.425 3.485 -15 5 C-15 4.34 -15 3.68 -15 3 C-10.32377925 0.19426755 -5.34965424 0 0 0 Z " fill="#CD9871" transform="translate(19,15)"/>
<path d="M0 0 C0.99 0.33 1.98 0.66 3 1 C3 3.31 3 5.62 3 8 C2.01 8.495 2.01 8.495 1 9 C0.01 8.34 -0.98 7.68 -2 7 C-1.125 2.25 -1.125 2.25 0 0 Z " fill="#6E4E3D" transform="translate(22,8)"/>
<path d="M0 0 C0 0.66 0 1.32 0 2 C-4.26616316 3.13764351 -7.56486311 4 -12 4 C-12 3.34 -12 2.68 -12 2 C-7.82262526 0.40861915 -4.46839215 -0.21278058 0 0 Z " fill="#EAD206" transform="translate(45,34)"/>
<path d="M0 0 C0.66 0 1.32 0 2 0 C0.65947522 6.45889213 0.65947522 6.45889213 -2.4375 9 C-5 10 -5 10 -8 9 C-6.02 8.34 -4.04 7.68 -2 7 C-1.855625 6.21625 -1.71125 5.4325 -1.5625 4.625 C-1 2 -1 2 0 0 Z " fill="#66523A" transform="translate(45,37)"/>
</svg>
